<mxfile host="Electron" agent="Mozilla/5.0 (Windows NT 10.0; Win64; x64) AppleWebKit/537.36 (KHTML, like Gecko) draw.io/26.0.4 Chrome/128.0.6613.186 Electron/32.2.5 Safari/537.36" version="26.0.4">
  <diagram name="Page-1" id="zSRr4HgumvD6iT_EKdTx">
    <mxGraphModel dx="398" dy="266" grid="1" gridSize="10" guides="1" tooltips="1" connect="1" arrows="1" fold="1" page="1" pageScale="1" pageWidth="827" pageHeight="1169" math="1" shadow="0">
      <root>
        <mxCell id="0" />
        <mxCell id="1" parent="0" />
        <mxCell id="JzQ4BQG8ZWjBhGlPj8Sn-1" value="Deklarationsbereich" style="rounded=0;whiteSpace=wrap;html=1;fontFamily=Ubuntu;" vertex="1" parent="1">
          <mxGeometry x="120" y="80" width="120" height="60" as="geometry" />
        </mxCell>
        <mxCell id="JzQ4BQG8ZWjBhGlPj8Sn-2" value="Implementations-bereich" style="rounded=0;whiteSpace=wrap;html=1;fontFamily=Ubuntu;" vertex="1" parent="1">
          <mxGeometry x="120" y="155" width="120" height="60" as="geometry" />
        </mxCell>
        <mxCell id="JzQ4BQG8ZWjBhGlPj8Sn-3" value="Divider des Todes" style="text;html=1;align=center;verticalAlign=middle;whiteSpace=wrap;rounded=0;fontFamily=Ubuntu;fontSize=8;fontColor=#5E5E5E;" vertex="1" parent="1">
          <mxGeometry x="120" y="140" width="120" height="15" as="geometry" />
        </mxCell>
      </root>
    </mxGraphModel>
  </diagram>
</mxfile>
